<?xml version="1.0" encoding="UTF-8"?>
<svg id="Layer_2" data-name="Layer 2" xmlns="http://www.w3.org/2000/svg" width="293.01" height="359.63" viewBox="0 0 293.01 359.63">
  <g id="Layer_1-2" data-name="Layer 1">
    <path d="M158.8,345.73c-3.95,8.54-6.6,13.9-12.3,13.91-5.7,0-8.34-5.36-12.3-13.91C115.36,304.84,14.44,56.09,2.84,23.56-3.2,6.57-.28,1.73,18.17.88c25.72-1.17,230.94-1.17,256.66,0,18.45.85,21.38,5.69,15.33,22.68-11.6,32.54-112.52,281.28-131.36,322.17ZM266.8,15.6c-13.75,5.98-27.45,12.08-41.17,18.16-15.61,6.92-46.79,20.82-62.7,27.04-13.21,5.17-19.66,5.17-32.87,0-15.9-6.22-47.09-20.13-62.7-27.04-13.71-6.08-27.41-12.18-41.17-18.16-4.02-1.75-7.92-3.42-11.67-4.99-1.41-.58-3.76-1.51-4.74.45-.93,1.86,1.26,3.16,2.46,3.93,3.15,2.01,6.33,3.9,9.56,5.79,12.37,7.23,25.29,14.36,37.82,21.3,15.66,8.68,47.2,25.7,62.07,35.69,9.58,6.43,11.72,11.6,12.58,22.93,1.73,22.95,2.95,68.97,3.71,91.97,1.01,30.67,2.01,61.33,3.06,92,.37,10.84.74,21.68,1.13,32.52.25,6.94.53,14.77,1.06,21.71.16,2.26.11,7.4,3.25,7.4,3.14,0,3.09-5.14,3.25-7.4.53-6.94.81-14.77,1.06-21.71.39-10.84.76-21.68,1.13-32.52,1.06-30.67,2.05-61.33,3.07-92,.76-23,1.98-69.02,3.71-91.97.86-11.33,3-16.49,12.58-22.93,14.87-9.99,46.41-27.01,62.07-35.69,12.53-6.94,25.45-14.08,37.82-21.3,3.23-1.88,6.41-3.78,9.56-5.79,1.2-.77,3.39-2.07,2.46-3.93-.98-1.96-3.34-1.03-4.75-.45-3.75,1.57-7.64,3.24-11.67,4.99Z" style="fill: #fff; stroke-width: 0px;"/>
  </g>
</svg>